<svg width="273" height="213" viewBox="0 0 273 213" fill="none" xmlns="http://www.w3.org/2000/svg">
<path d="M214.288 147.184C214.288 157.521 218.578 162.71 227.429 163.17C234.354 163.526 239.272 155.136 239.46 143.543C239.606 135.027 237.033 129.461 227.387 129.545C217.364 129.629 214.288 133.604 214.288 147.184Z" fill="#E4EEDD"/>
<path d="M143.291 107.449C143.919 103.976 142.057 100.523 141.01 96.9869C139.88 92.9904 136.825 91.5884 133.164 91.5465C129.502 91.5047 126.07 92.0278 124.417 95.7314C120.442 104.75 117.533 113.768 123.225 123.351C127.41 130.424 133.122 131.01 138.353 124.481C140.759 121.405 143.396 112.617 143.291 107.449Z" fill="#E4EEDD"/>
<path d="M155.7 67.379C156.621 74.9954 156.683 82.5909 165.409 86.2108C168.045 87.3198 169.594 87.55 171.686 85.5622C178.403 79.2849 179.156 56.9168 172.063 51.4137C171.071 50.5478 169.889 49.9281 168.613 49.6048C167.336 49.2816 166.002 49.264 164.717 49.5535C163.433 49.843 162.235 50.4313 161.221 51.2708C160.207 52.1103 159.405 53.1772 158.88 54.3849C156.851 58.2978 156.621 63.0476 155.7 67.379Z" fill="#E4EEDD"/>
<path d="M247.432 33.8792C245.737 42.479 252.998 44.3414 259.986 45.2202C265.699 45.9526 273.106 36.704 272.06 29.3805C271.181 23.1032 271.788 14.5869 261.597 14.3777C253.039 14.2103 247.599 21.1781 247.432 33.8792Z" fill="#E4EEDD"/>
<path d="M153.796 152.792C153.583 155.578 153.583 158.376 153.796 161.162C154.695 166.832 158.148 171.101 163.672 171.959C169.656 172.879 170.221 166.456 171.644 162.961C175.39 153.796 171.832 144.548 168.966 135.927C167.187 130.55 162.103 132.537 158.922 135.676C154.235 140.238 153.607 146.389 153.796 152.792Z" fill="#E4EEDD"/>
<path d="M261.179 85.3322C253.353 93.7019 251.616 103.599 255.927 114.626C257.266 118.037 259.568 121.238 263.334 120.652C265.208 120.213 266.911 119.23 268.229 117.827C269.547 116.424 270.421 114.662 270.741 112.764C273.503 101.925 274.382 91.5676 261.179 85.3322Z" fill="#E4EEDD"/>
<path d="M209.12 105.608C207.99 101.172 210.04 93.4716 201.273 92.2162C196.167 91.4838 189.242 102.051 189.283 109.772C189.283 118.309 197.444 120.234 202.319 124.419C204.537 126.281 209.266 115.882 209.12 105.608Z" fill="#E4EEDD"/>
<path d="M239.648 70.434C239.27 68.8279 238.809 67.2424 238.267 65.6842C236.3 60.5996 238.057 52.3763 230.462 51.7904C225.628 51.4138 223.682 56.8333 222.28 61.9597C220.188 69.8482 219.246 77.0042 225.838 82.7793C227.099 83.7634 228.653 84.298 230.253 84.298C231.852 84.298 233.406 83.7634 234.668 82.7793C238.455 79.7871 238.769 75.0792 239.648 70.434Z" fill="#E4EEDD"/>
<path d="M34.5274 163.254C34.4856 163.602 34.4856 163.953 34.5274 164.3C35.9084 168.883 31.6399 176.374 38.4403 177.671C43.2319 178.592 46.5798 172.356 49.4674 168.234C53.4012 162.626 52.1666 156.098 50.9112 150.176C50.0951 146.264 45.7847 145.008 41.6208 145.154C37.4568 145.301 35.5109 148.251 35.0924 151.871C34.8726 155.662 34.8726 159.463 35.0924 163.254H34.5274Z" fill="#E4EEDD"/>
<path d="M210.688 13.7083C208.742 9.27234 213.953 -0.185548 203.741 0.00277114C195.267 0.149241 194.932 7.66106 194.974 14.6498C194.974 22.2662 193.07 32.7494 203.344 32.3727C212.425 32.0379 209.956 21.3038 210.688 13.7083Z" fill="#E4EEDD"/>
<path d="M61.5402 52.5645C61.6748 50.5054 61.5412 48.4375 61.1427 46.4128C60.4475 44.4697 59.296 42.7219 57.7849 41.3164C56.2738 39.9109 54.4474 38.8888 52.4591 38.336C48.5253 37.248 47.3745 41.8722 45.9307 44.8644C45.1984 46.4128 44.4869 47.9612 43.8383 49.5514C41.7459 54.7197 41.9342 59.8253 45.575 64.1984C48.1487 67.2743 51.8523 66.6885 55.1374 65.4121C61.0171 63.0895 61.7913 58.0048 61.5402 52.5645Z" fill="#E4EEDD"/>
<path d="M112.679 165.158C111.382 160.032 116.571 151.913 107.092 151.997C98.4087 151.997 95.9606 160.199 95.9397 166.79C95.9397 171.854 94.7888 180.726 103.807 180.851C115.776 180.998 111.005 170.849 112.679 165.158Z" fill="#E4EEDD"/>
<path d="M148.084 200.918C147.812 193.636 148.084 185.748 140.718 185.706C133.353 185.664 131.156 192.527 130.926 200.039C130.675 207.969 134.755 213.075 141.137 212.594C146.87 212.384 149.109 205.814 148.084 200.918Z" fill="#E4EEDD"/>
<path d="M82.8414 198.449C84.1387 191.69 82.3392 185.769 75.3086 186.459C65.7671 187.401 66.7924 196.294 65.9555 203.199C65.265 208.869 68.4873 212.259 73.4882 212.029C82.0462 211.652 84.1596 205.668 82.8414 198.449Z" fill="#E4EEDD"/>
<path d="M63.7582 114.522C63.1514 123.038 64.8881 128.101 72.128 128.164C79.3678 128.227 82.1088 122.41 81.8578 117.032C81.6067 111.299 80.5186 103.306 72.4837 103.118C63.8838 102.909 64.4069 110.713 63.7582 114.522Z" fill="#E4EEDD"/>
<path d="M10.6108 86.1898C3.28727 92.4671 -1.94381 98.598 0.692653 108.453C1.61332 111.948 3.18264 114.082 6.96994 113.956C8.50942 114.039 10.0346 113.624 11.3197 112.772C12.6048 111.92 13.5815 110.678 14.1051 109.227C17.5995 100.983 13.1845 94.2038 10.6108 86.1898Z" fill="#E4EEDD"/>
</svg>
