<svg width="267" height="207" viewBox="0 0 267 207" fill="none" xmlns="http://www.w3.org/2000/svg">
<path d="M249.369 25.715C249.002 33.4425 251.069 41.1701 241.274 41.7883C234.126 42.2327 229.973 35.9926 229.683 26.1786C229.432 18.451 232.233 11.8053 234.725 4.92774C235.653 2.37764 236.812 -0.867947 240.734 0.213914C243.863 1.1219 247.128 2.70604 246.993 6.47324C246.703 13.6019 250.277 20.2477 249.369 25.715Z" fill="#E4EEDD"/>
<path d="M73.4695 108.999C73.4695 118.543 69.6059 123.334 61.3374 123.759C54.9622 124.087 50.4029 116.34 50.229 105.638C50.0938 97.7747 52.4698 92.6359 61.3952 92.7131C70.6876 92.8097 73.4695 96.461 73.4695 108.999Z" fill="#E4EEDD"/>
<path d="M139.096 72.3123C138.516 69.1054 140.216 65.9177 141.182 62.6528C141.597 61.0916 142.553 59.7287 143.88 58.8084C145.208 57.888 146.82 57.4703 148.427 57.6298C151.692 57.6298 154.976 58.0742 156.502 61.4936C160.173 69.8394 162.858 78.1466 157.603 87.014C153.74 93.5245 148.466 94.0655 143.636 88.038C141.414 85.256 138.98 77.0841 139.096 72.3123Z" fill="#E4EEDD"/>
<path d="M220.314 90.2401C220.951 96.7506 219.29 102.469 211.929 102.817C204.202 103.164 202.154 97.2335 200.879 90.7037C199.353 82.9761 203.178 76.3691 205.786 69.8393C207.872 64.6038 213.513 65.4925 215.445 70.0904C217.725 76.485 221.705 82.8216 220.314 90.2401Z" fill="#E4EEDD"/>
<path d="M127.718 35.3165C126.868 42.3486 126.829 49.3614 118.754 52.7035C116.319 53.7274 114.89 53.9399 112.958 52.1046C106.757 46.309 106.061 25.657 112.61 20.5761C113.527 19.7771 114.62 19.2059 115.799 18.9088C116.978 18.6117 118.211 18.5971 119.397 18.8664C120.583 19.1356 121.689 19.6809 122.625 20.4581C123.56 21.2352 124.299 22.2222 124.781 23.3387C126.559 26.932 126.771 31.3175 127.718 35.3165Z" fill="#E4EEDD"/>
<path d="M59.8888 160.812C61.4536 168.752 54.7692 170.472 48.2974 171.264C43.0426 171.959 36.2037 163.401 37.1697 156.659C37.9811 150.863 37.4208 143 46.8291 142.807C54.7306 142.652 59.7535 149.086 59.8888 160.812Z" fill="#E4EEDD"/>
<path d="M129.379 114.061C129.574 116.633 129.574 119.216 129.379 121.788C128.567 127.004 125.36 130.965 120.26 131.737C114.735 132.588 114.213 126.657 112.9 123.43C109.441 114.969 112.726 106.43 115.372 98.4702C117.015 93.5245 121.709 95.3598 124.665 98.2384C128.973 102.469 129.533 108.265 129.379 114.061Z" fill="#E4EEDD"/>
<path d="M30.3306 51.8921C37.5365 59.6197 39.14 68.7769 35.1603 78.9386C33.9239 82.0876 31.7988 85.0434 28.3407 84.5025C26.6091 84.1018 25.0346 83.1987 23.8144 81.9064C22.5943 80.6141 21.7832 78.9902 21.4826 77.2385C18.8552 67.212 18.063 57.6685 30.3306 51.8921Z" fill="#E4EEDD"/>
<path d="M78.2997 70.6122C79.343 66.5166 77.4497 59.4072 85.5443 58.248C90.2582 57.5912 96.6529 67.328 96.6143 74.4567C96.6143 82.3581 89.099 84.1162 84.5977 87.9799C82.492 89.6993 78.1645 80.0978 78.2997 70.6122Z" fill="#E4EEDD"/>
<path d="M249.524 75.4227C249.873 73.9461 250.298 72.4888 250.799 71.0566C252.731 66.3428 250.992 58.7505 258.005 58.2096C262.468 57.8618 264.264 62.8654 265.559 67.6179C267.491 74.8818 268.379 81.5082 262.275 86.8209C261.112 87.7249 259.681 88.2155 258.208 88.2155C256.735 88.2155 255.304 87.7249 254.141 86.8209C250.567 84.039 250.335 79.6922 249.524 75.4227Z" fill="#E4EEDD"/>
<path d="M239.516 123.875C239.555 124.195 239.555 124.52 239.516 124.841C238.26 129.071 242.182 135.987 235.903 137.185C231.499 138.035 228.388 132.278 225.722 128.472C222.09 123.295 223.23 117.287 224.389 111.82C225.162 108.188 229.122 107.028 232.967 107.164C236.811 107.299 238.608 110.023 238.994 113.365C239.197 116.865 239.197 120.374 238.994 123.875H239.516Z" fill="#E4EEDD"/>
<path d="M86.1042 145.724C87.9009 141.648 83.1097 132.896 92.518 133.07C100.362 133.206 100.651 140.141 100.613 146.594C100.613 153.626 102.371 163.324 92.8852 162.957C84.5201 162.667 86.7804 152.698 86.1042 145.724Z" fill="#E4EEDD"/>
<path d="M109.539 193.268C109.416 191.367 109.539 189.458 109.906 187.589C110.547 185.796 111.611 184.185 113.006 182.891C114.402 181.596 116.088 180.656 117.923 180.151C121.555 179.127 122.618 183.396 123.951 186.178C124.627 187.589 125.284 189.018 125.883 190.506C127.814 195.258 127.641 199.972 124.279 204.029C121.903 206.888 118.484 206.347 115.45 205.15C110.138 203.044 109.423 198.369 109.539 193.268Z" fill="#E4EEDD"/>
<path d="M167.341 125.652C168.539 120.919 163.767 113.442 172.518 113.519C180.516 113.519 182.777 121.093 182.796 127.159C182.796 131.853 183.859 140.025 175.552 140.141C164.482 140.218 168.887 130.868 167.341 125.652Z" fill="#E4EEDD"/>
<path d="M134.653 158.649C134.904 151.906 134.653 144.642 141.453 144.584C148.253 144.527 150.282 150.902 150.494 157.818C150.726 165.14 146.959 169.854 141.067 169.506C135.773 169.197 133.706 163.131 134.653 158.649Z" fill="#E4EEDD"/>
<path d="M194.89 156.33C193.692 150.09 195.353 144.623 201.845 145.261C210.673 146.13 209.707 154.341 210.48 160.716C211.118 165.971 208.162 169.081 203.525 168.868C195.624 168.521 193.673 162.996 194.89 156.33Z" fill="#E4EEDD"/>
<path d="M0 113.867C0.271782 111.854 0.697887 109.865 1.27488 107.917C2.49197 104.324 1.81597 98.2577 7.47642 99.0498C11.7846 99.668 12.8663 105.27 13.1367 108.98C13.1274 113.672 12.351 118.332 10.8379 122.773C10.0651 125.71 6.97409 126.251 4.53991 125.594C-0.888719 124.145 0.154552 119.412 0 113.867Z" fill="#E4EEDD"/>
<path d="M176.498 41.402C183.24 47.1977 188.089 52.8581 185.635 61.9767C184.785 65.1836 183.337 67.1541 179.84 67.0382C178.417 67.1233 177.005 66.746 175.814 65.9626C174.623 65.1792 173.718 64.0317 173.233 62.6914C170.084 55.0605 174.121 48.8785 176.498 41.402Z" fill="#E4EEDD"/>
</svg>
