<svg width="19" height="30" viewBox="0 0 19 30" fill="none" xmlns="http://www.w3.org/2000/svg">
<path d="M17.1666 26.7264L16.5631 26.2861L15.9625 26.2932C15.0946 25.868 14.1631 25.4895 13.3499 25.0265C11.3178 23.8336 9.13556 22.7052 9.14936 20.2842C8.87698 19.8638 8.74779 19.3885 8.77423 18.904C8.80067 18.4195 8.98183 17.942 9.30034 17.5173L9.47996 16.7737C9.88782 15.2809 9.8803 13.9464 7.64825 13.4915C5.43015 13.3257 3.67878 12.6813 3.15062 10.7712C2.41849 9.12352 2.52515 7.27887 3.44824 5.62282C3.46095 3.86963 4.99533 2.90538 6.54027 1.94776C7.18661 0.301439 5.89824 0.160854 4.42709 0.143688C2.54188 1.9893 0.800984 3.88881 0.463449 6.32396L0.223123 10.6095C0.649697 13.3405 2.82467 14.7446 5.93305 15.443C8.10542 15.7241 6.71456 16.7345 6.45984 17.5104C6.26181 20.2121 6.10088 22.8938 8.91142 24.8444C10.2742 25.7933 11.6104 26.7688 12.9555 27.7354C13.143 28.0774 13.4621 28.3584 13.8685 28.5392C14.2748 28.7199 14.7482 28.7915 15.2226 28.7438L15.8261 29.2705C16.8573 29.1504 18.0133 29.0865 18.2611 27.9972C18.3975 27.3057 18.2405 26.7192 17.1666 26.7264Z" fill="#272727"/>
</svg>
