<svg width="20" height="30" viewBox="0 0 20 30" fill="none" xmlns="http://www.w3.org/2000/svg">
<path d="M19.8791 5.45153C19.3255 3.7387 18.7666 2.01679 18.2025 0.28581C16.6207 -0.558498 16.3044 0.603546 16.1462 2.00165C16.684 3.12739 17.554 4.05342 17.728 5.4152C17.97 5.91364 18.0639 6.48909 17.9954 7.0543C17.9269 7.61951 17.6996 8.14367 17.3483 8.54733C15.1655 11.516 13.1093 14.6845 9.28151 14.9023C8.86161 15.0068 8.47427 15.2401 8.16087 15.5775C7.84747 15.9148 7.6198 16.3436 7.50208 16.8179C7.65234 17.2446 7.78675 17.6713 7.96074 18.0889C9.83508 22.6282 9.10755 24.5892 5.05834 25.9873C4.52847 26.1779 3.9669 26.2687 3.42121 26.414L1.47572 27.0767C0.447598 29.5279 0.724369 29.9455 3.42121 30C3.69901 29.7245 4.02184 29.5152 4.37078 29.3843C4.71972 29.2534 5.08786 29.2034 5.45377 29.2374C5.47737 29.0873 5.49317 28.9357 5.50117 28.7835L8.53023 27.576L10.2226 26.0871C11.3377 24.0989 10.7367 21.8474 11.0135 19.7321C10.9106 18.9514 9.81926 17.989 11.3219 17.4897C14.8966 15.8283 17.3404 12.7053 19.4916 9.21005C19.869 8.0076 20.0016 6.7219 19.8791 5.45153ZM9.16287 16.1098C9.08217 16.1057 9.00163 16.1215 8.92663 16.1559C8.85164 16.1903 8.78396 16.2427 8.72795 16.3095C8.78396 16.2427 8.85164 16.1903 8.92663 16.1559C9.00163 16.1215 9.08217 16.1057 9.16287 16.1098C9.27767 16.0987 9.39287 16.1252 9.49506 16.1863C9.59725 16.2474 9.68223 16.3405 9.74018 16.4548C9.68223 16.3405 9.59725 16.2474 9.49506 16.1863C9.39287 16.1252 9.27767 16.0987 9.16287 16.1098Z" fill="#272727"/>
</svg>
